<?xml version="1.0" encoding="utf-8"?>
<!-- Generator: Adobe Illustrator 26.0.3, SVG Export Plug-In . SVG Version: 6.00 Build 0)  -->
<svg version="1.1" id="Layer_1" xmlns="http://www.w3.org/2000/svg" xmlns:xlink="http://www.w3.org/1999/xlink" x="0px" y="0px"
	 viewBox="0 0 500 500" style="enable-background:new 0 0 500 500;" xml:space="preserve">
<style type="text/css">
	.st0{fill:url(#SVGID_1_);}
	.st1{fill:#2D2D64;}
	.st2{fill:#E89E9E;}
	.st3{fill:#7A1F0C;}
	.st4{fill:#0F1444;}
	.st5{fill:#E58F8F;}
	.st6{fill:#FAFAFF;}
	.st7{fill:#5BA679;}
</style>
<linearGradient id="SVGID_1_" gradientUnits="userSpaceOnUse" x1="0" y1="250" x2="500" y2="250">
	<stop  offset="0" style="stop-color:#00E9CC"/>
	<stop  offset="1" style="stop-color:#979AEA"/>
</linearGradient>
<rect y="0" class="st0" width="500" height="500"/>
<g>
	<g>
		<path class="st1" d="M190.2,65.5c19.7-25.7,65-35.8,91.4-11.2c26,24.2,37.7,4.2,65.9,29.9C364.7,99.9,335.9,226,335.9,226h-171
			C142.2,119.8,149,54.7,190.2,65.5z"/>
		<g>
			<rect x="200.7" y="264.1" class="st2" width="99.5" height="136"/>
			<path class="st3" d="M300.1,264.1v33.1c-2.8,13.5-27.7,26.5-49.7,26.5s-46.9-13-49.7-26.5v-33.1H300.1z"/>
		</g>
		<g>
			<path class="st2" d="M189,193.2c-8.5-12.8-28.2-20.1-36.6-5.1c-8.2,14.7-2.6,60.8,25.1,52.3C196,234.8,195.9,203.6,189,193.2z"/>
			<path class="st3" d="M181.6,219.8c-1,0-1.8-0.8-1.8-1.8c0-14.9-8.3-22.4-15.3-24.3c-1-0.3-1.5-1.2-1.3-2.2c0.3-1,1.2-1.5,2.2-1.3
				c8.3,2.2,18,10.9,18,27.8C183.4,219,182.6,219.8,181.6,219.8z"/>
		</g>
		<g>
			<path class="st2" d="M311.8,193.2c8.5-12.8,28.2-20.1,36.6-5.1c8.2,14.7,2.6,60.8-25.1,52.3C304.8,234.8,304.9,203.6,311.8,193.2
				z"/>
			<path class="st3" d="M319.3,219.8c-1,0-1.8-0.8-1.8-1.8c0-16.9,9.7-25.6,18-27.8c1-0.3,1.9,0.3,2.2,1.3c0.3,1-0.3,1.9-1.3,2.2
				c-7.1,1.9-15.3,9.4-15.3,24.3C321.1,219,320.3,219.8,319.3,219.8z"/>
		</g>
		<path class="st2" d="M250.4,112.4c-99.4,0-75.4,68.3-75.4,102.4s-1.2,90.5,75.4,90.5s75.4-56.4,75.4-90.5S349.8,112.4,250.4,112.4
			z"/>
		<g>
			<path class="st4" d="M216.7,192c0,5.3,2.5,9.7,5.7,9.7c3.1,0,5.7-4.3,5.7-9.7s-2.5-9.7-5.7-9.7S216.7,186.6,216.7,192z"/>
			<path class="st1" d="M235,174.3c-1.2,4-11.3-3.2-17.3-2.7c-10.1,1-10.5,6.1-14.2,5.2c-0.5-4.6,6-10.6,14.7-11.2
				C231.3,164.8,235,174.3,235,174.3z"/>
			<path class="st4" d="M284.2,192c0,5.3-2.5,9.7-5.7,9.7c-3.1,0-5.7-4.3-5.7-9.7s2.5-9.7,5.7-9.7
				C281.6,182.3,284.2,186.6,284.2,192z"/>
			<path class="st1" d="M265.8,174.3c1.2,4,11.3-3.2,17.3-2.7c10.1,1,10.5,6.1,14.2,5.2c0.5-4.6-6-10.6-14.7-11.2
				C269.6,164.8,265.8,174.3,265.8,174.3z"/>
			<path class="st3" d="M254.4,242.6c-3,0-6.7-0.9-9.1-2.7c-1.5-1.2-2.4-2.7-2.6-4.4c-0.1-1.9,0.1-4.5,0.5-8.2
				c0.5-5.3,1.4-13.4,1.4-24.6c0-1,0.8-1.8,1.8-1.8s1.8,0.8,1.8,1.8c0,11.4-0.8,19.6-1.4,25c-0.4,3.4-0.6,5.9-0.5,7.5
				c0.1,0.7,0.4,1.3,1.2,1.9c2.1,1.6,6.1,2.2,8.5,1.8c1-0.2,1.9,0.5,2.1,1.4c0.2,1-0.5,1.9-1.4,2.1
				C256,242.6,255.2,242.6,254.4,242.6z"/>
			<path class="st5" d="M183.2,211.5c-4.1,7.7-1.9,16.8,4.9,20.5c6.8,3.6,15.6,0.3,19.7-7.4c4.1-7.7,1.9-16.8-4.9-20.4
				C196.1,200.5,187.3,203.8,183.2,211.5z"/>
			<path class="st5" d="M317.7,211.5c4.1,7.7,1.9,16.8-4.9,20.5c-6.8,3.6-15.6,0.3-19.7-7.4s-1.9-16.8,4.9-20.4
				C304.8,200.5,313.6,203.8,317.7,211.5z"/>
			<path class="st6" d="M243.5,258.8c8.8,1.4,30.3-4.7,36.9-16.7c4.9,0.5,15.4,16.6-8.1,27.6C248.4,280.8,241.4,262.5,243.5,258.8z"
				/>
		</g>
		<path class="st1" d="M250.4,107.9c-96.6,0-77.9,75.7-77.9,75.7l2.1,47c5.2-59.3,24.4-56.3,25.7-90.9c14.2-32.7,72.6,22.5,100.3,0
			c1.3,34.6,20.5,31.6,25.7,90.9l2.1-47C328.3,183.6,347,107.9,250.4,107.9z"/>
	</g>
	<g>
		<path class="st7" d="M461,500.3H39.8c0-67,24.8-125,53-139.4c28-14.4,87.7-10.8,107.9-21.2c0,0,8.8,31.8,49.7,31.8
			s49.7-31.8,49.7-31.8c20.2,10.5,79.9,6.9,107.9,21.2C436.2,375.3,461,433.3,461,500.3z"/>
		<g>
			<path class="st2" d="M396.3,473.2c0.2,9.2-0.5,27.1-0.5,27.1H461c0-10.3-0.6-20.4-1.7-30.1C431.5,474,396.3,473.2,396.3,473.2z"
				/>
			<path class="st2" d="M104.6,473.2c-0.2,9.2,0.5,27.1,0.5,27.1H39.8c0-10.3,0.6-20.4,1.7-30.1C69.3,474,104.6,473.2,104.6,473.2z"
				/>
		</g>
		<path class="st1" d="M167.7,346.8c12.2,53.3,69,47.3,69,47.3l13.7,25.8l13.7-25.8c0,0,56.8,6,69-47.3c-13.8-1.6-25.9-3.5-33-7.2
			c0,0-8.8,31.8-49.7,31.8s-49.7-31.8-49.7-31.8C193.6,343.3,181.5,345.2,167.7,346.8L167.7,346.8z"/>
		<path class="st2" d="M314.7,344.1c-5.9-1.2-10.9-2.6-14.6-4.5h-99.4c-3.7,1.9-8.7,3.3-14.6,4.5l0,0c0.9,34.2,50.6,35.7,50.6,35.7
			l13.7,18.3l13.7-18.3C264.1,379.8,313.7,378.3,314.7,344.1L314.7,344.1z"/>
		<g>
			<path class="st1" d="M396.3,473.2l-0.5-15c15.3,2.2,61.1-5.2,61.1-5.2c1.1,5.5,2.5,17.2,2.5,17.2
				C436,473.9,396.3,473.2,396.3,473.2z"/>
			<path class="st1" d="M104.6,473.2l0.5-15C89.8,460.4,44,453,44,453c-1.1,5.5-2.5,17.2-2.5,17.2
				C64.8,473.9,104.6,473.2,104.6,473.2z"/>
		</g>
		<g>
			<path class="st4" d="M396.1,498.7L396.1,498.7c-1.1,0-1.8-0.9-1.8-1.9c0-0.5,1.9-52.1-6.1-85.6c-0.2-1,0.4-1.9,1.3-2.2
				c1-0.2,1.9,0.4,2.2,1.3c8.2,34,6.2,86.1,6.2,86.6C397.9,497.9,397.1,498.7,396.1,498.7z"/>
			<path class="st4" d="M104.7,498.7c-1,0-1.8-0.8-1.8-1.7c0-0.5-2-52.6,6.2-86.6c0.2-1,1.2-1.6,2.2-1.3c1,0.2,1.6,1.2,1.3,2.2
				c-8.1,33.5-6.1,85.1-6.1,85.6C106.6,497.8,105.8,498.6,104.7,498.7C104.8,498.7,104.7,498.7,104.7,498.7z"/>
		</g>
	</g>
</g>
</svg>
