<?xml version="1.0" encoding="utf-8"?>
<!-- Generator: Adobe Illustrator 26.0.3, SVG Export Plug-In . SVG Version: 6.00 Build 0)  -->
<svg version="1.1" id="Layer_1" xmlns="http://www.w3.org/2000/svg" xmlns:xlink="http://www.w3.org/1999/xlink" x="0px" y="0px"
	 viewBox="0 0 500 500" style="enable-background:new 0 0 500 500;" xml:space="preserve">
<style type="text/css">
	.st0{fill:url(#SVGID_1_);}
	.st1{fill:#E58A45;}
	.st2{fill:#E7B7B7;}
	.st3{fill:#7A1F0C;}
	.st4{fill:#FAFAFF;}
	.st5{fill:#E3A2A2;}
	.st6{fill:#0F1444;}
	.st7{fill:#BF504C;}
</style>
<linearGradient id="SVGID_1_" gradientUnits="userSpaceOnUse" x1="0" y1="250" x2="500" y2="250">
	<stop  offset="0" style="stop-color:#979AEA"/>
	<stop  offset="1" style="stop-color:#00E9CC"/>
</linearGradient>
<rect class="st0" width="500" height="500"/>
<g>
	<g>
		<g>
			<path class="st1" d="M375.5,300.1c4.6-11.8,13.9-31.7,4.8-50c-13.1-26.1-22.4-35.2-22.8-69.2c-9.4,37.6,3.9,51.6,15,70.8
				s-2.8,41.3-7.9,56.8c-2.6,8,10.4,17.2,7.6,41.7C384.1,330.4,366.9,322,375.5,300.1z"/>
			<path class="st1" d="M124.5,300.1c-4.6-11.8-13.9-31.7-4.8-50c13.1-26.1,22.4-35.2,22.8-69.2c9.4,37.6-3.9,51.6-15,70.8
				s2.8,41.3,7.9,56.8c2.6,8-10.4,17.2-7.6,41.7C115.8,330.4,133.1,322,124.5,300.1z"/>
		</g>
		<path class="st1" d="M360,320.9c16,28.6-1.6,61.1-29.3,61.1c-29.4,0-31.6,30.9-80.8,30.9S198.5,382,169.1,382
			c-27.7,0-45.3-32.4-29.3-61c11.7-20.9-19.5-34-3.7-70.5c16.8-38.7,6.3-36.3,6.3-69.4c0-63.2,39.3-113.5,107.5-113.5
			c68.1,0,107.5,50.3,107.5,113.5c0,33.2-10.4,30.8,6.3,69.4C379.6,286.9,348.4,300,360,320.9z"/>
		<g>
			<rect x="200.8" y="267.8" class="st2" width="98.4" height="106.1"/>
			<path class="st3" d="M299.2,267.8v32.8c-2.8,13.3-27.4,26.2-49.2,26.2s-46.4-12.9-49.2-26.2v-32.8H299.2z"/>
		</g>
		<g>
			<path class="st2" d="M310.7,197.6c8.4-12.6,27.9-19.9,36.2-5c8.1,14.5,2.5,60.2-24.8,51.8C303.8,238.7,303.9,207.9,310.7,197.6z"
				/>
			<path class="st3" d="M318.1,224c-1,0-1.8-0.8-1.8-1.8c0-16.8,9.6-25.3,17.8-27.5c0.9-0.3,1.9,0.3,2.2,1.3
				c0.3,0.9-0.3,1.9-1.3,2.2c-7,1.9-15.2,9.3-15.2,24.1C319.9,223.2,319.1,224,318.1,224z"/>
			<circle class="st4" cx="332.4" cy="232.7" r="6.6"/>
		</g>
		<g>
			<path class="st2" d="M189.2,197.6c-8.4-12.6-27.9-19.9-36.2-5c-8.1,14.5-2.5,60.2,24.8,51.8C196.2,238.7,196,207.9,189.2,197.6z"
				/>
			<path class="st3" d="M181.9,224c1,0,1.8-0.8,1.8-1.8c0-16.8-9.6-25.3-17.8-27.5c-0.9-0.3-1.9,0.3-2.2,1.3
				c-0.3,0.9,0.3,1.9,1.3,2.2c7,1.9,15.2,9.3,15.2,24.1C180.1,223.2,180.9,224,181.9,224z"/>
			<circle class="st4" cx="167.6" cy="232.7" r="6.6"/>
		</g>
		<path class="st2" d="M250,117.6c-98.3,0-74.6,67.6-74.6,101.3s-1.2,89.5,74.6,89.5s74.6-55.8,74.6-89.5S348.3,117.6,250,117.6z"/>
		<g>
			<path class="st3" d="M253.9,246.5c-3,0-6.6-0.9-9-2.7c-1.5-1.2-2.4-2.7-2.5-4.4c-0.1-1.9,0.1-4.5,0.5-8.1
				c0.5-5.3,1.4-13.2,1.4-24.3c0-1,0.8-1.8,1.8-1.8s1.8,0.8,1.8,1.8c0,11.3-0.8,19.3-1.4,24.7c-0.4,3.4-0.6,5.9-0.5,7.4
				c0.1,0.7,0.4,1.3,1.2,1.8c2.1,1.6,6.1,2.2,8.4,1.8c1-0.2,1.9,0.5,2.1,1.4c0.2,1-0.5,1.9-1.4,2.1
				C255.5,246.5,254.7,246.5,253.9,246.5z"/>
			<path class="st5" d="M183.5,215.7c-4,7.6-1.9,16.7,4.8,20.2c6.7,3.6,15.4,0.3,19.5-7.3c4-7.6,1.9-16.7-4.8-20.2
				C196.2,204.8,187.5,208.1,183.5,215.7z"/>
			<path class="st5" d="M316.5,215.7c4,7.6,1.9,16.7-4.8,20.2c-6.7,3.6-15.4,0.3-19.5-7.3c-4-7.6-1.9-16.7,4.8-20.2
				C303.8,204.8,312.5,208.1,316.5,215.7z"/>
			<path class="st4" d="M243.1,262.5c8.7,1.4,30-4.7,36.5-16.6c4.9,0.5,15.2,16.4-8,27.3C248,284.3,241.1,266.2,243.1,262.5z"/>
			<path class="st1" d="M234.8,178.9c-1.2,4-11.2-3.2-17.1-2.6c-10,1-10.4,6-14,5.1c-0.5-4.6,5.9-10.5,14.6-11
				C231,169.5,234.8,178.9,234.8,178.9z"/>
			<g>
				<path class="st6" d="M216.6,196.4c0,5.3,2.5,9.6,5.6,9.6s5.6-4.3,5.6-9.6c0-5.3-2.5-9.6-5.6-9.6S216.6,191.1,216.6,196.4z"/>
				<path class="st6" d="M222.2,186.8c-6.3-0.9-10.8,0.8-10.8,0.8c5.6,0.4,7.7,3.1,7.7,3.1L222.2,186.8z"/>
			</g>
			<path class="st1" d="M265.2,178.9c1.2,4,11.2-3.2,17.1-2.6c10,1,10.4,6,14,5.1c0.5-4.6-5.9-10.5-14.6-11
				C268.9,169.5,265.2,178.9,265.2,178.9z"/>
			<g>
				<path class="st6" d="M283.4,196.4c0,5.3-2.5,9.6-5.6,9.6s-5.6-4.3-5.6-9.6c0-5.3,2.5-9.6,5.6-9.6S283.4,191.1,283.4,196.4z"/>
				<path class="st6" d="M277.8,186.8c6.3-0.9,10.8,0.8,10.8,0.8c-5.6,0.4-7.7,3.1-7.7,3.1L277.8,186.8z"/>
			</g>
		</g>
		<path class="st1" d="M250,113.2c-95.6,0-77.1,74.9-77.1,74.9c4.7,26.7,19.3,12.2,18-8.2c0-26.8,13.4-51.2,59.1-51.2
			s59.1,24.4,59.1,51.2c-1.3,20.4,13.3,34.9,18,8.2C327.1,188.1,345.6,113.2,250,113.2z"/>
	</g>
	<g>
		<path class="st7" d="M458.4,501.4H41.6c0-66.3,24.5-123.7,52.4-137.9c27.7-14.2,86.8-10.7,106.8-21c0,0,8.7,31.4,49.2,31.4
			s49.2-31.4,49.2-31.4c20,10.4,79.1,6.8,106.8,21C433.8,377.8,458.4,435.2,458.4,501.4z"/>
		<g>
			<path class="st6" d="M394.1,499.8L394.1,499.8c-1.1,0-1.8-0.9-1.8-1.8c0-0.5,1.9-51.5-6-84.7c-0.2-1,0.4-1.9,1.3-2.1
				c1-0.2,1.9,0.4,2.1,1.3c8.1,33.7,6.2,85.2,6.1,85.7C395.9,499.1,395.1,499.8,394.1,499.8z"/>
			<path class="st6" d="M105.8,499.8c-0.9,0-1.7-0.7-1.8-1.7c0-0.5-1.9-52,6.1-85.7c0.2-1,1.2-1.5,2.1-1.3c1,0.2,1.5,1.2,1.3,2.1
				c-8,33.2-6.1,84.2-6,84.7C107.6,499,106.9,499.8,105.8,499.8C105.9,499.8,105.9,499.8,105.8,499.8z"/>
		</g>
		<g>
			<path class="st4" d="M323.5,348.6L323.5,348.6c-10.5-7.1-18.7-11.7-24.3-14.6c0,0-7.7,35.9-41.6,39.5V441
				C307.8,441,323.5,381.9,323.5,348.6z"/>
			<path class="st4" d="M176.5,348.6L176.5,348.6c10.5-7.1,18.7-11.7,24.3-14.6c0,0,7.7,35.9,41.6,39.5V441
				C192.2,441,176.5,381.9,176.5,348.6z"/>
		</g>
	</g>
</g>
</svg>
