<?xml version="1.0" encoding="utf-8"?>
<svg version="1.1" id="Layer_1" xmlns="http://www.w3.org/2000/svg" xmlns:xlink="http://www.w3.org/1999/xlink" x="0px" y="0px"
	 viewBox="0 0 512 512" style="enable-background:new 0 0 512 512;" xml:space="preserve">
<style type="text/css">
	.st0{fill:#e11d48;}
</style>
<path class="st0" d="M477.1,498c-6.3,0-13.1-1.5-20.2-4.5c-8.6-3.4-18.1-9.2-29.2-17.4c-10.3-7.7-20.6-16.2-30.9-25.4
	c-8.4-7.6-16.6-15.6-24.3-23.9c-8.2-8.8-14.5-16.7-19.1-24c-6.2-9.6-13.9-24.1-9.1-38.2c4.2-12.3,14.8-19.3,28.5-19.2l0.7,0
	c10.8,0.7,23.4,5.8,38.7,15.8c11.9,7.7,25,17.9,38.8,30.3c9.9,8.9,18.3,17.1,24.9,24.3c6.7,7.3,12.3,14,16.5,19.8
	c10.5,14.9,14.8,26.1,13.8,36.2c-0.6,12.8-8.5,22.4-20.9,25.1C482.6,497.7,479.9,498,477.1,498z"/>
<path class="st0" d="M199.9,401.7C92.8,401.7,5.6,314.5,5.6,207.4C5.6,100.2,92.8,13,199.9,13c107.2,0,194.4,87.2,194.4,194.4
	C394.3,314.5,307.1,401.7,199.9,401.7z M199.9,59.9c-81.3,0-147.5,66.2-147.5,147.5c0,81.3,66.2,147.5,147.5,147.5
	c81.3,0,147.5-66.2,147.5-147.5C347.4,126,281.2,59.9,199.9,59.9z"/>
</svg>
